<svg width="98" height="40" viewBox="0 0 98 40" fill="none" xmlns="http://www.w3.org/2000/svg">
<rect width="98" height="40" fill="#323232"/>
<rect width="98" height="40" fill="white"/>
<path d="M79.9319 12.9832C79.6337 15.1173 78.3495 17.0932 76.5202 18.2321C74.6909 19.3711 72.3511 19.6517 70.3044 18.9776C71.188 16.0387 72.9438 13.3682 75.2917 11.392C73.623 12.2336 72.3084 13.6633 71.3198 15.2493C70.3313 16.8354 69.6408 18.5854 68.9559 20.3241C68.3057 20.2226 68 19.7977 68 19.7977C68.0301 19.5282 68.5393 18.4588 69.0555 17.4464C67.9201 15.8387 68.7247 13.4099 70.1903 12.0701C71.3199 11.0373 73.2247 10.465 74.6277 9.85291C76.0306 9.24095 77.4589 8.39467 78.0894 7C79.5366 8.59683 80.2301 10.849 79.9319 12.9832Z" fill="#5FA53A"/>
<path d="M21.6 29.12C21.08 29.12 20.624 29.016 20.232 28.808C19.848 28.6 19.548 28.308 19.332 27.932C19.124 27.548 19.02 27.104 19.02 26.6V24.8C19.02 24.288 19.124 23.844 19.332 23.468C19.548 23.092 19.848 22.8 20.232 22.592C20.624 22.384 21.08 22.28 21.6 22.28C22.12 22.28 22.572 22.384 22.956 22.592C23.348 22.8 23.648 23.092 23.856 23.468C24.072 23.844 24.18 24.288 24.18 24.8V25.964H20.076V26.6C20.076 27.12 20.208 27.52 20.472 27.8C20.736 28.072 21.112 28.208 21.6 28.208C22.016 28.208 22.352 28.136 22.608 27.992C22.864 27.84 23.02 27.616 23.076 27.32H24.156C24.084 27.872 23.812 28.312 23.34 28.64C22.876 28.96 22.296 29.12 21.6 29.12ZM23.124 25.244V24.8C23.124 24.28 22.992 23.88 22.728 23.6C22.472 23.32 22.096 23.18 21.6 23.18C21.112 23.18 20.736 23.32 20.472 23.6C20.208 23.88 20.076 24.28 20.076 24.8V25.148H23.208L23.124 25.244ZM28.4113 29.12C27.7553 29.12 27.2233 28.9 26.8153 28.46C26.4153 28.02 26.2153 27.424 26.2153 26.672V24.74C26.2153 23.98 26.4153 23.38 26.8153 22.94C27.2153 22.5 27.7473 22.28 28.4113 22.28C28.9553 22.28 29.3913 22.428 29.7193 22.724C30.0473 23.02 30.2113 23.416 30.2113 23.912L29.9953 23.66H30.2353L30.2113 22.16V20.24H31.2913V29H30.2113V27.74H29.9953L30.2113 27.488C30.2113 27.992 30.0473 28.392 29.7193 28.688C29.3913 28.976 28.9553 29.12 28.4113 29.12ZM28.7713 28.184C29.2193 28.184 29.5713 28.044 29.8273 27.764C30.0833 27.484 30.2113 27.096 30.2113 26.6V24.8C30.2113 24.304 30.0833 23.916 29.8273 23.636C29.5713 23.356 29.2193 23.216 28.7713 23.216C28.3153 23.216 27.9553 23.352 27.6913 23.624C27.4273 23.896 27.2953 24.288 27.2953 24.8V26.6C27.2953 27.112 27.4273 27.504 27.6913 27.776C27.9553 28.048 28.3153 28.184 28.7713 28.184ZM35.9786 29.12C35.2186 29.12 34.6106 28.896 34.1546 28.448C33.6986 27.992 33.4706 27.376 33.4706 26.6V22.4H34.5506V26.6C34.5506 27.096 34.6786 27.484 34.9346 27.764C35.1906 28.036 35.5386 28.172 35.9786 28.172C36.4266 28.172 36.7786 28.036 37.0346 27.764C37.2986 27.484 37.4306 27.096 37.4306 26.6V22.4H38.5106V26.6C38.5106 27.376 38.2786 27.992 37.8146 28.448C37.3506 28.896 36.7386 29.12 35.9786 29.12Z" fill="black"/>
<path d="M44.0859 29C43.7019 29 43.3659 28.924 43.0779 28.772C42.7899 28.62 42.5659 28.404 42.4059 28.124C42.2459 27.844 42.1659 27.516 42.1659 27.14V21.224H39.9459V20.24H43.2459V27.14C43.2459 27.412 43.3219 27.628 43.4739 27.788C43.6259 27.94 43.8299 28.016 44.0859 28.016H46.1859V29H44.0859ZM47.8013 29V28.016H50.1413V23.384H48.1013V22.4H51.2213V28.016H53.4413V29H47.8013ZM50.5613 21.212C50.2973 21.212 50.0893 21.144 49.9373 21.008C49.7853 20.872 49.7093 20.688 49.7093 20.456C49.7093 20.216 49.7853 20.028 49.9373 19.892C50.0893 19.748 50.2973 19.676 50.5613 19.676C50.8253 19.676 51.0333 19.748 51.1853 19.892C51.3373 20.028 51.4133 20.216 51.4133 20.456C51.4133 20.688 51.3373 20.872 51.1853 21.008C51.0333 21.144 50.8253 21.212 50.5613 21.212ZM56.8446 29L54.6366 22.4H55.7406L57.2046 26.84C57.2926 27.104 57.3726 27.36 57.4446 27.608C57.5166 27.848 57.5686 28.036 57.6006 28.172C57.6406 28.036 57.6966 27.848 57.7686 27.608C57.8406 27.36 57.9166 27.104 57.9966 26.84L59.4246 22.4H60.5166L58.3086 29H56.8446ZM62.5039 29V22.4H63.5599V23.66H63.8119L63.4639 24.44C63.4639 23.728 63.6159 23.192 63.9199 22.832C64.2319 22.464 64.6919 22.28 65.2999 22.28C65.9959 22.28 66.5479 22.5 66.9559 22.94C67.3719 23.372 67.5799 23.96 67.5799 24.704V25.1H66.4999V24.8C66.4999 24.28 66.3719 23.884 66.1159 23.612C65.8679 23.332 65.5119 23.192 65.0479 23.192C64.5919 23.192 64.2319 23.332 63.9679 23.612C63.7119 23.892 63.5839 24.288 63.5839 24.8V29H62.5039ZM71.9672 29.12C71.4472 29.12 70.9912 29.016 70.5992 28.808C70.2152 28.6 69.9152 28.308 69.6992 27.932C69.4912 27.548 69.3872 27.104 69.3872 26.6V24.8C69.3872 24.288 69.4912 23.844 69.6992 23.468C69.9152 23.092 70.2152 22.8 70.5992 22.592C70.9912 22.384 71.4472 22.28 71.9672 22.28C72.4872 22.28 72.9392 22.384 73.3232 22.592C73.7152 22.8 74.0152 23.092 74.2232 23.468C74.4392 23.844 74.5472 24.288 74.5472 24.8V25.964H70.4432V26.6C70.4432 27.12 70.5752 27.52 70.8392 27.8C71.1032 28.072 71.4792 28.208 71.9672 28.208C72.3832 28.208 72.7192 28.136 72.9752 27.992C73.2312 27.84 73.3872 27.616 73.4432 27.32H74.5232C74.4512 27.872 74.1792 28.312 73.7072 28.64C73.2432 28.96 72.6632 29.12 71.9672 29.12ZM73.4912 25.244V24.8C73.4912 24.28 73.3592 23.88 73.0952 23.6C72.8392 23.32 72.4632 23.18 71.9672 23.18C71.4792 23.18 71.1032 23.32 70.8392 23.6C70.5752 23.88 70.4432 24.28 70.4432 24.8V25.148H73.5752L73.4912 25.244Z" fill="#5FA53A"/>
</svg>
